<mxfile host="app.diagrams.net" modified="2024-04-10T13:22:38.850Z" agent="Mozilla/5.0 (Windows NT 10.0; Win64; x64) AppleWebKit/537.36 (KHTML, like Gecko) Chrome/123.0.0.0 Safari/537.36 Edg/123.0.0.0" version="24.2.3" etag="arAAlxcXsm6UxAMWcF8W" type="github">
  <diagram name="第 1 页" id="0uEOs6Wv8TfW7uHljAGg">
    <mxGraphModel>
      <root>
        <mxCell id="0" />
        <mxCell id="1" parent="0" />
      </root>
    </mxGraphModel>
  </diagram>
</mxfile>
